<?xml version="1.0" encoding="UTF-8"?>
<svg width="24px" height="24px" viewBox="0 0 24 24" version="1.1" xmlns="http://www.w3.org/2000/svg" xmlns:xlink="http://www.w3.org/1999/xlink">
    <title>bell</title>
    <g id="bell" stroke="none" stroke-width="1" fill="none" fill-rule="evenodd">
        <path d="M4.20703125,16.453125 C4.20703125,16.8645833 4.34505208,17.1959635 4.62109375,17.4472656 C4.89713542,17.6985677 5.26953125,17.8242188 5.73828125,17.8242188 L8.80859375,17.8242188 C8.82942708,18.3216146 8.97981771,18.7936198 9.25976562,19.2402344 C9.53971354,19.686849 9.92643229,20.0514323 10.4199219,20.3339844 C10.9134115,20.6165365 11.4908854,20.7578125 12.1523438,20.7578125 C12.8190104,20.7578125 13.3990885,20.6171875 13.8925781,20.3359375 C14.3860677,20.0546875 14.7727865,19.6907552 15.0527344,19.2441406 C15.3326823,18.797526 15.4830729,18.3242188 15.5039062,17.8242188 L18.5742188,17.8242188 C19.0429688,17.8242188 19.4153646,17.6985677 19.6914062,17.4472656 C19.9674479,17.1959635 20.1054688,16.8645833 20.1054688,16.453125 C20.1054688,16.1484375 20.0358073,15.8626302 19.8964844,15.5957031 C19.7571615,15.328776 19.5755208,15.0761719 19.3515625,14.8378906 C19.1276042,14.5996094 18.890625,14.3697917 18.640625,14.1484375 C18.4348958,13.9713542 18.2773438,13.7408854 18.1679688,13.4570312 C18.0585938,13.1731771 17.9739583,12.843099 17.9140625,12.4667969 C17.8541667,12.0904948 17.7955729,11.6692708 17.7382812,11.203125 C17.6783854,10.2864583 17.5266927,9.46419271 17.2832031,8.73632812 C17.0397135,8.00846354 16.6979167,7.39388021 16.2578125,6.89257812 C15.8177083,6.39127604 15.2669271,6.02213542 14.6054688,5.78515625 C14.4309896,5.24869792 14.1269531,4.81054688 13.6933594,4.47070312 C13.2597656,4.13085938 12.7460938,3.9609375 12.1523438,3.9609375 C11.5638021,3.9609375 11.0527344,4.13085938 10.6191406,4.47070312 C10.1855469,4.81054688 9.88151042,5.24869792 9.70703125,5.78515625 C9.04557292,6.02213542 8.49414062,6.39127604 8.05273438,6.89257812 C7.61132812,7.39388021 7.26953125,8.00846354 7.02734375,8.73632812 C6.78515625,9.46419271 6.63411458,10.2864583 6.57421875,11.203125 C6.51692708,11.6692708 6.45833333,12.0904948 6.3984375,12.4667969 C6.33854167,12.843099 6.25390625,13.1731771 6.14453125,13.4570312 C6.03515625,13.7408854 5.87760417,13.9713542 5.671875,14.1484375 C5.421875,14.3697917 5.18489583,14.5996094 4.9609375,14.8378906 C4.73697917,15.0761719 4.55533854,15.328776 4.41601562,15.5957031 C4.27669271,15.8626302 4.20703125,16.1484375 4.20703125,16.453125 Z M6.69140625,15.953125 L6.69140625,15.8671875 C6.79296875,15.796875 6.90559896,15.7122396 7.02929688,15.6132812 C7.15299479,15.5143229 7.27864583,15.4042969 7.40625,15.2832031 C7.53385417,15.1621094 7.65494792,15.0325521 7.76953125,14.8945312 C7.89192708,14.7434896 7.99934896,14.5514323 8.09179688,14.3183594 C8.18424479,14.0852865 8.26367188,13.8216146 8.33007812,13.5273438 C8.39648438,13.2330729 8.45117188,12.9186198 8.49414062,12.5839844 C8.53710938,12.249349 8.57161458,11.9049479 8.59765625,11.5507812 C8.64192708,10.6367188 8.76367188,9.90104167 8.96289062,9.34375 C9.16210938,8.78645833 9.41666667,8.36523438 9.7265625,8.08007812 C10.0364583,7.79492188 10.3789062,7.6015625 10.7539062,7.5 C10.8450521,7.47916667 10.9173177,7.44270833 10.9707031,7.390625 C11.0240885,7.33854167 11.0572917,7.25260417 11.0703125,7.1328125 C11.1015625,6.75520833 11.2122396,6.45572917 11.4023438,6.234375 C11.5924479,6.01302083 11.8424479,5.90234375 12.1523438,5.90234375 C12.4674479,5.90234375 12.7200521,6.01302083 12.9101562,6.234375 C13.1002604,6.45572917 13.2109375,6.75520833 13.2421875,7.1328125 C13.2526042,7.25260417 13.2851562,7.33854167 13.3398438,7.390625 C13.3945312,7.44270833 13.4661458,7.47916667 13.5546875,7.5 C13.9296875,7.6015625 14.2721354,7.79492188 14.5820312,8.08007812 C14.8919271,8.36523438 15.1471354,8.78645833 15.3476562,9.34375 C15.5481771,9.90104167 15.6705729,10.6367188 15.7148438,11.5507812 C15.7382812,11.9049479 15.7727865,12.249349 15.8183594,12.5839844 C15.8639323,12.9186198 15.9192708,13.2330729 15.984375,13.5273438 C16.0494792,13.8216146 16.1282552,14.0852865 16.2207031,14.3183594 C16.313151,14.5514323 16.4192708,14.7434896 16.5390625,14.8945312 C16.65625,15.0325521 16.7747396,15.1621094 16.8945312,15.2832031 C17.0143229,15.4042969 17.1321615,15.5143229 17.2480469,15.6132812 C17.3639323,15.7122396 17.4726562,15.796875 17.5742188,15.8671875 L17.5742188,15.953125 L6.69140625,15.953125 Z M10.734375,17.8242188 L13.578125,17.8242188 C13.5494792,18.2486979 13.4036458,18.5898438 13.140625,18.8476562 C12.8776042,19.1054688 12.5481771,19.234375 12.1523438,19.234375 C11.7617188,19.234375 11.4342448,19.1054688 11.1699219,18.8476562 C10.905599,18.5898438 10.7604167,18.2486979 10.734375,17.8242188 Z" id="Shape" fill="#181818" fill-rule="nonzero"></path>
    </g>
</svg>