<?xml version="1.0" encoding="UTF-8"?>
<svg width="24px" height="24px" viewBox="0 0 24 24" version="1.1" xmlns="http://www.w3.org/2000/svg" xmlns:xlink="http://www.w3.org/1999/xlink">
    <title>calendar</title>
    <g id="calendar" stroke="none" stroke-width="1" fill="none" fill-rule="evenodd">
        <path d="M6.71484375,19.84375 L17.6054688,19.84375 C18.4960938,19.84375 19.1770833,19.6080729 19.6484375,19.1367188 C20.1197917,18.6653646 20.3554688,17.984375 20.3554688,17.09375 L20.3554688,7.640625 C20.3554688,6.75520833 20.1197917,6.07682292 19.6484375,5.60546875 C19.1770833,5.13411458 18.4960938,4.8984375 17.6054688,4.8984375 L6.71484375,4.8984375 C5.82421875,4.8984375 5.14192708,5.13411458 4.66796875,5.60546875 C4.19401042,6.07682292 3.95703125,6.75520833 3.95703125,7.640625 L3.95703125,17.09375 C3.95703125,17.984375 4.19401042,18.6653646 4.66796875,19.1367188 C5.14192708,19.6080729 5.82421875,19.84375 6.71484375,19.84375 Z M6.86328125,17.8203125 C6.57161458,17.8203125 6.35026042,17.7473958 6.19921875,17.6015625 C6.04817708,17.4557292 5.97265625,17.2291667 5.97265625,16.921875 L5.97265625,9.96875 C5.97265625,9.66666667 6.04817708,9.44270833 6.19921875,9.296875 C6.35026042,9.15104167 6.57161458,9.078125 6.86328125,9.078125 L17.4492188,9.078125 C17.7408854,9.078125 17.9622396,9.15104167 18.1132812,9.296875 C18.2643229,9.44270833 18.3398438,9.66666667 18.3398438,9.96875 L18.3398438,16.921875 C18.3398438,17.2291667 18.2643229,17.4557292 18.1132812,17.6015625 C17.9622396,17.7473958 17.7408854,17.8203125 17.4492188,17.8203125 L6.86328125,17.8203125 Z M10.6992188,11.6171875 L11.1523438,11.6171875 C11.2981771,11.6171875 11.3997396,11.5885417 11.4570312,11.53125 C11.5143229,11.4739583 11.5429688,11.375 11.5429688,11.234375 L11.5429688,10.7734375 C11.5429688,10.6328125 11.5143229,10.5351562 11.4570312,10.4804688 C11.3997396,10.4257812 11.2981771,10.3984375 11.1523438,10.3984375 L10.6992188,10.3984375 C10.5533854,10.3984375 10.4518229,10.4257812 10.3945312,10.4804688 C10.3372396,10.5351562 10.3085938,10.6328125 10.3085938,10.7734375 L10.3085938,11.234375 C10.3085938,11.375 10.3372396,11.4739583 10.3945312,11.53125 C10.4518229,11.5885417 10.5533854,11.6171875 10.6992188,11.6171875 Z M13.1757812,11.6171875 L13.6367188,11.6171875 C13.7825521,11.6171875 13.8841146,11.5885417 13.9414062,11.53125 C13.9986979,11.4739583 14.0273438,11.375 14.0273438,11.234375 L14.0273438,10.7734375 C14.0273438,10.6328125 13.9986979,10.5351562 13.9414062,10.4804688 C13.8841146,10.4257812 13.7825521,10.3984375 13.6367188,10.3984375 L13.1757812,10.3984375 C13.0351562,10.3984375 12.9361979,10.4257812 12.8789062,10.4804688 C12.8216146,10.5351562 12.7929688,10.6328125 12.7929688,10.7734375 L12.7929688,11.234375 C12.7929688,11.375 12.8216146,11.4739583 12.8789062,11.53125 C12.9361979,11.5885417 13.0351562,11.6171875 13.1757812,11.6171875 Z M15.6601562,11.6171875 L16.1210938,11.6171875 C16.2669271,11.6171875 16.3684896,11.5885417 16.4257812,11.53125 C16.4830729,11.4739583 16.5117188,11.375 16.5117188,11.234375 L16.5117188,10.7734375 C16.5117188,10.6328125 16.4830729,10.5351562 16.4257812,10.4804688 C16.3684896,10.4257812 16.2669271,10.3984375 16.1210938,10.3984375 L15.6601562,10.3984375 C15.5195312,10.3984375 15.4205729,10.4257812 15.3632812,10.4804688 C15.3059896,10.5351562 15.2773438,10.6328125 15.2773438,10.7734375 L15.2773438,11.234375 C15.2773438,11.375 15.3059896,11.4739583 15.3632812,11.53125 C15.4205729,11.5885417 15.5195312,11.6171875 15.6601562,11.6171875 Z M8.21484375,14.0546875 L8.67578125,14.0546875 C8.81640625,14.0546875 8.91536458,14.0273438 8.97265625,13.9726562 C9.02994792,13.9179688 9.05859375,13.8203125 9.05859375,13.6796875 L9.05859375,13.21875 C9.05859375,13.078125 9.02994792,12.9804688 8.97265625,12.9257812 C8.91536458,12.8710938 8.81640625,12.84375 8.67578125,12.84375 L8.21484375,12.84375 C8.06901042,12.84375 7.96744792,12.8710938 7.91015625,12.9257812 C7.85286458,12.9804688 7.82421875,13.078125 7.82421875,13.21875 L7.82421875,13.6796875 C7.82421875,13.8203125 7.85286458,13.9179688 7.91015625,13.9726562 C7.96744792,14.0273438 8.06901042,14.0546875 8.21484375,14.0546875 Z M10.6992188,14.0546875 L11.1523438,14.0546875 C11.2981771,14.0546875 11.3997396,14.0273438 11.4570312,13.9726562 C11.5143229,13.9179688 11.5429688,13.8203125 11.5429688,13.6796875 L11.5429688,13.21875 C11.5429688,13.078125 11.5143229,12.9804688 11.4570312,12.9257812 C11.3997396,12.8710938 11.2981771,12.84375 11.1523438,12.84375 L10.6992188,12.84375 C10.5533854,12.84375 10.4518229,12.8710938 10.3945312,12.9257812 C10.3372396,12.9804688 10.3085938,13.078125 10.3085938,13.21875 L10.3085938,13.6796875 C10.3085938,13.8203125 10.3372396,13.9179688 10.3945312,13.9726562 C10.4518229,14.0273438 10.5533854,14.0546875 10.6992188,14.0546875 Z M13.1757812,14.0546875 L13.6367188,14.0546875 C13.7825521,14.0546875 13.8841146,14.0273438 13.9414062,13.9726562 C13.9986979,13.9179688 14.0273438,13.8203125 14.0273438,13.6796875 L14.0273438,13.21875 C14.0273438,13.078125 13.9986979,12.9804688 13.9414062,12.9257812 C13.8841146,12.8710938 13.7825521,12.84375 13.6367188,12.84375 L13.1757812,12.84375 C13.0351562,12.84375 12.9361979,12.8710938 12.8789062,12.9257812 C12.8216146,12.9804688 12.7929688,13.078125 12.7929688,13.21875 L12.7929688,13.6796875 C12.7929688,13.8203125 12.8216146,13.9179688 12.8789062,13.9726562 C12.9361979,14.0273438 13.0351562,14.0546875 13.1757812,14.0546875 Z M15.6601562,14.0546875 L16.1210938,14.0546875 C16.2669271,14.0546875 16.3684896,14.0273438 16.4257812,13.9726562 C16.4830729,13.9179688 16.5117188,13.8203125 16.5117188,13.6796875 L16.5117188,13.21875 C16.5117188,13.078125 16.4830729,12.9804688 16.4257812,12.9257812 C16.3684896,12.8710938 16.2669271,12.84375 16.1210938,12.84375 L15.6601562,12.84375 C15.5195312,12.84375 15.4205729,12.8710938 15.3632812,12.9257812 C15.3059896,12.9804688 15.2773438,13.078125 15.2773438,13.21875 L15.2773438,13.6796875 C15.2773438,13.8203125 15.3059896,13.9179688 15.3632812,13.9726562 C15.4205729,14.0273438 15.5195312,14.0546875 15.6601562,14.0546875 Z M8.21484375,16.5 L8.67578125,16.5 C8.81640625,16.5 8.91536458,16.4726562 8.97265625,16.4179688 C9.02994792,16.3632812 9.05859375,16.2630208 9.05859375,16.1171875 L9.05859375,15.6640625 C9.05859375,15.5182292 9.02994792,15.4192708 8.97265625,15.3671875 C8.91536458,15.3151042 8.81640625,15.2890625 8.67578125,15.2890625 L8.21484375,15.2890625 C8.06901042,15.2890625 7.96744792,15.3151042 7.91015625,15.3671875 C7.85286458,15.4192708 7.82421875,15.5182292 7.82421875,15.6640625 L7.82421875,16.1171875 C7.82421875,16.2630208 7.85286458,16.3632812 7.91015625,16.4179688 C7.96744792,16.4726562 8.06901042,16.5 8.21484375,16.5 Z M10.6992188,16.5 L11.1523438,16.5 C11.2981771,16.5 11.3997396,16.4726562 11.4570312,16.4179688 C11.5143229,16.3632812 11.5429688,16.2630208 11.5429688,16.1171875 L11.5429688,15.6640625 C11.5429688,15.5182292 11.5143229,15.4192708 11.4570312,15.3671875 C11.3997396,15.3151042 11.2981771,15.2890625 11.1523438,15.2890625 L10.6992188,15.2890625 C10.5533854,15.2890625 10.4518229,15.3151042 10.3945312,15.3671875 C10.3372396,15.4192708 10.3085938,15.5182292 10.3085938,15.6640625 L10.3085938,16.1171875 C10.3085938,16.2630208 10.3372396,16.3632812 10.3945312,16.4179688 C10.4518229,16.4726562 10.5533854,16.5 10.6992188,16.5 Z M13.1757812,16.5 L13.6367188,16.5 C13.7825521,16.5 13.8841146,16.4726562 13.9414062,16.4179688 C13.9986979,16.3632812 14.0273438,16.2630208 14.0273438,16.1171875 L14.0273438,15.6640625 C14.0273438,15.5182292 13.9986979,15.4192708 13.9414062,15.3671875 C13.8841146,15.3151042 13.7825521,15.2890625 13.6367188,15.2890625 L13.1757812,15.2890625 C13.0351562,15.2890625 12.9361979,15.3151042 12.8789062,15.3671875 C12.8216146,15.4192708 12.7929688,15.5182292 12.7929688,15.6640625 L12.7929688,16.1171875 C12.7929688,16.2630208 12.8216146,16.3632812 12.8789062,16.4179688 C12.9361979,16.4726562 13.0351562,16.5 13.1757812,16.5 Z" id="Shape" fill="#181818" fill-rule="nonzero"></path>
    </g>
</svg>