<?xml version="1.0" encoding="UTF-8"?>
<svg width="24px" height="24px" viewBox="0 0 24 24" version="1.1" xmlns="http://www.w3.org/2000/svg" xmlns:xlink="http://www.w3.org/1999/xlink">
    <title>house</title>
    <g id="house" stroke="none" stroke-width="1" fill="none" fill-rule="evenodd">
        <path d="M9.66015625,19.6796875 L14.1328125,19.6796875 L14.1328125,14.1171875 C14.1328125,13.9322917 14.0768229,13.7832031 13.9648438,13.6699219 C13.8528646,13.5566406 13.7044271,13.5 13.5195312,13.5 L10.2851562,13.5 C10.0976562,13.5 9.94661458,13.5566406 9.83203125,13.6699219 C9.71744792,13.7832031 9.66015625,13.9322917 9.66015625,14.1171875 L9.66015625,19.6796875 Z M6.59765625,21.0742188 L17.171875,21.0742188 C17.828125,21.0742188 18.3404948,20.8938802 18.7089844,20.5332031 C19.077474,20.172526 19.2617188,19.6783854 19.2617188,19.0507812 L19.2617188,10.3515625 L17.2460938,8.96875 L17.2460938,18.3242188 C17.2460938,18.5585938 17.1835938,18.7395833 17.0585938,18.8671875 C16.9335938,18.9947917 16.7552083,19.0585938 16.5234375,19.0585938 L7.24609375,19.0585938 C7.01432292,19.0585938 6.83528646,18.9947917 6.70898438,18.8671875 C6.58268229,18.7395833 6.51953125,18.5585938 6.51953125,18.3242188 L6.51953125,8.97265625 L4.50390625,10.3515625 L4.50390625,19.0507812 C4.50390625,19.6783854 4.68880208,20.172526 5.05859375,20.5332031 C5.42838542,20.8938802 5.94140625,21.0742188 6.59765625,21.0742188 Z M1.9921875,12.03125 C1.9921875,12.3072917 2.08463542,12.5371094 2.26953125,12.7207031 C2.45442708,12.9042969 2.703125,12.9960938 3.015625,12.9960938 C3.15885417,12.9960938 3.29882812,12.9641927 3.43554688,12.9003906 C3.57226562,12.8365885 3.70052083,12.7552083 3.8203125,12.65625 L11.4726562,6.23828125 C11.6132812,6.11848958 11.7578125,6.05859375 11.90625,6.05859375 C12.0546875,6.05859375 12.1992188,6.11848958 12.3398438,6.23828125 L19.9804688,12.65625 C20.1002604,12.7552083 20.2285156,12.8365885 20.3652344,12.9003906 C20.5019531,12.9641927 20.6419271,12.9960938 20.7851562,12.9960938 C21.0820312,12.9960938 21.3261719,12.9101562 21.5175781,12.7382812 C21.7089844,12.5664062 21.8046875,12.3346354 21.8046875,12.0429688 C21.8046875,11.7174479 21.6705729,11.4427083 21.4023438,11.21875 L13.2734375,4.38671875 C12.859375,4.04036458 12.4036458,3.8671875 11.90625,3.8671875 C11.4088542,3.8671875 10.953125,4.04036458 10.5390625,4.38671875 L2.3984375,11.2226562 C2.12760417,11.4518229 1.9921875,11.7213542 1.9921875,12.03125 Z M16.6171875,7.78515625 L19.2617188,10.0039062 L19.2617188,5.94140625 C19.2617188,5.75911458 19.2070312,5.61328125 19.0976562,5.50390625 C18.9882812,5.39453125 18.8424479,5.33984375 18.6601562,5.33984375 L17.2226562,5.33984375 C17.0403646,5.33984375 16.8938802,5.39453125 16.7832031,5.50390625 C16.672526,5.61328125 16.6171875,5.75911458 16.6171875,5.94140625 L16.6171875,7.78515625 Z" id="Shape" fill="#181818" fill-rule="nonzero"></path>
    </g>
</svg>