<?xml version="1.0" encoding="UTF-8"?>
<svg width="24px" height="24px" viewBox="0 0 24 24" version="1.1" xmlns="http://www.w3.org/2000/svg" xmlns:xlink="http://www.w3.org/1999/xlink">
    <title>message-bubble</title>
    <g id="message-bubble" stroke="none" stroke-width="1" fill="none" fill-rule="evenodd">
        <path d="M6.59179688,21.0859375 C6.96679688,21.0859375 7.44596354,20.9824219 8.02929688,20.7753906 C8.61263021,20.5683594 9.22981771,20.2916667 9.88085938,19.9453125 C10.531901,19.5989583 11.1503906,19.2148438 11.7363281,18.7929688 C12.8639323,18.7981771 13.9231771,18.6777344 14.9140625,18.4316406 C15.9049479,18.1855469 16.8053385,17.8346354 17.6152344,17.3789062 C18.4251302,16.9231771 19.1217448,16.3815104 19.7050781,15.7539062 C20.2884115,15.1263021 20.7382812,14.4303385 21.0546875,13.6660156 C21.3710938,12.9016927 21.5292969,12.0885417 21.5292969,11.2265625 C21.5292969,10.1744792 21.2884115,9.18945312 20.8066406,8.27148438 C20.3248698,7.35351562 19.6549479,6.54752604 18.796875,5.85351562 C17.9388021,5.15950521 16.9427083,4.6171875 15.8085938,4.2265625 C14.6744792,3.8359375 13.4576823,3.640625 12.1582031,3.640625 C10.8561198,3.640625 9.63802083,3.8359375 8.50390625,4.2265625 C7.36979167,4.6171875 6.37434896,5.15950521 5.51757812,5.85351562 C4.66080729,6.54752604 3.99088542,7.35351562 3.5078125,8.27148438 C3.02473958,9.18945312 2.78320312,10.1744792 2.78320312,11.2265625 C2.78320312,12.0807292 2.94401042,12.8971354 3.265625,13.6757812 C3.58723958,14.4544271 4.04231771,15.1621094 4.63085938,15.7988281 C5.21940104,16.4355469 5.91601562,16.9661458 6.72070312,17.390625 C6.61653646,17.5755208 6.49739583,17.7786458 6.36328125,18 C6.22916667,18.2213542 6.09375,18.4361979 5.95703125,18.6445312 C5.8203125,18.8528646 5.69726562,19.0286458 5.58789062,19.171875 C5.37955729,19.453125 5.28841146,19.7421875 5.31445312,20.0390625 C5.34049479,20.3359375 5.46484375,20.5846354 5.6875,20.7851562 C5.91015625,20.9856771 6.21158854,21.0859375 6.59179688,21.0859375 Z M7.72460938,19 C7.64908854,19.0286458 7.59960938,19.0286458 7.57617188,19 C7.55273438,18.9713542 7.56705729,18.9231771 7.61914062,18.8554688 C7.78580729,18.6471354 7.98828125,18.3815104 8.2265625,18.0585938 C8.46484375,17.7356771 8.66471354,17.4270833 8.82617188,17.1328125 C8.95638021,16.890625 8.98958333,16.671224 8.92578125,16.4746094 C8.86197917,16.2779948 8.70377604,16.1184896 8.45117188,15.9960938 C7.69335938,15.6367188 7.04492188,15.2109375 6.50585938,14.71875 C5.96679688,14.2265625 5.55403646,13.6848958 5.26757812,13.09375 C4.98111979,12.5026042 4.83789062,11.8802083 4.83789062,11.2265625 C4.83789062,10.4635417 5.02604167,9.74804688 5.40234375,9.08007812 C5.77864583,8.41210938 6.30143229,7.82421875 6.97070312,7.31640625 C7.63997396,6.80859375 8.41731771,6.41080729 9.30273438,6.12304688 C10.188151,5.83528646 11.139974,5.69140625 12.1582031,5.69140625 C13.1738281,5.69140625 14.124349,5.83528646 15.0097656,6.12304688 C15.8951823,6.41080729 16.672526,6.80859375 17.3417969,7.31640625 C18.0110677,7.82421875 18.5345052,8.41210938 18.9121094,9.08007812 C19.2897135,9.74804688 19.4785156,10.4635417 19.4785156,11.2265625 C19.4785156,11.9869792 19.2897135,12.7018229 18.9121094,13.3710938 C18.5345052,14.0403646 18.0110677,14.6282552 17.3417969,15.1347656 C16.672526,15.641276 15.8951823,16.0384115 15.0097656,16.3261719 C14.124349,16.6139323 13.1738281,16.7578125 12.1582031,16.7578125 C12.0957031,16.7578125 12.0214844,16.7571615 11.9355469,16.7558594 C11.8496094,16.7545573 11.7545573,16.7526042 11.6503906,16.75 C11.4785156,16.75 11.3216146,16.7766927 11.1796875,16.8300781 C11.0377604,16.8834635 10.8834635,16.9765625 10.7167969,17.109375 C10.4173177,17.3411458 10.0768229,17.5859375 9.6953125,17.84375 C9.31380208,18.1015625 8.9453125,18.3359375 8.58984375,18.546875 C8.234375,18.7578125 7.94596354,18.9088542 7.72460938,19 Z" id="Shape" fill="#181818" fill-rule="nonzero"></path>
    </g>
</svg>