<?xml version="1.0" encoding="UTF-8"?>
<svg width="24px" height="24px" viewBox="0 0 24 24" version="1.1" xmlns="http://www.w3.org/2000/svg" xmlns:xlink="http://www.w3.org/1999/xlink">
    <title>safari</title>
    <g id="safari" stroke="none" stroke-width="1" fill="none" fill-rule="evenodd">
        <path d="M12.1542969,20.6171875 C13.2897135,20.6171875 14.3548177,20.4023438 15.3496094,19.9726562 C16.344401,19.5429688 17.2207031,18.9479167 17.9785156,18.1875 C18.7363281,17.4270833 19.3313802,16.5494792 19.7636719,15.5546875 C20.1959635,14.5598958 20.4121094,13.4947917 20.4121094,12.359375 C20.4121094,11.2291667 20.1959635,10.1666667 19.7636719,9.171875 C19.3313802,8.17708333 18.7363281,7.29947917 17.9785156,6.5390625 C17.2207031,5.77864583 16.343099,5.18359375 15.3457031,4.75390625 C14.3483073,4.32421875 13.2845052,4.109375 12.1542969,4.109375 C11.0240885,4.109375 9.96028646,4.32421875 8.96289062,4.75390625 C7.96549479,5.18359375 7.08789062,5.77864583 6.33007812,6.5390625 C5.57226562,7.29947917 4.97851562,8.17708333 4.54882812,9.171875 C4.11914062,10.1666667 3.90429688,11.2291667 3.90429688,12.359375 C3.90429688,13.4947917 4.11914062,14.5598958 4.54882812,15.5546875 C4.97851562,16.5494792 5.57356771,17.4270833 6.33398438,18.1875 C7.09440104,18.9479167 7.97200521,19.5429688 8.96679688,19.9726562 C9.96158854,20.4023438 11.0240885,20.6171875 12.1542969,20.6171875 Z M12.1542969,18.5625 C11.3001302,18.5625 10.4980469,18.4010417 9.74804688,18.078125 C8.99804688,17.7552083 8.33919271,17.3111979 7.77148438,16.7460938 C7.20377604,16.1809896 6.76106771,15.5234375 6.44335938,14.7734375 C6.12565104,14.0234375 5.96679688,13.21875 5.96679688,12.359375 C5.96679688,11.5 6.12565104,10.6966146 6.44335938,9.94921875 C6.76106771,9.20182292 7.20377604,8.54427083 7.77148438,7.9765625 C8.33919271,7.40885417 8.99674479,6.96484375 9.74414062,6.64453125 C10.4915365,6.32421875 11.2949219,6.1640625 12.1542969,6.1640625 C13.0136719,6.1640625 13.8170573,6.32421875 14.5644531,6.64453125 C15.311849,6.96484375 15.969401,7.40885417 16.5371094,7.9765625 C17.1048177,8.54427083 17.5501302,9.20182292 17.8730469,9.94921875 C18.1959635,10.6966146 18.3574219,11.5 18.3574219,12.359375 C18.3574219,13.21875 18.1972656,14.0234375 17.8769531,14.7734375 C17.5566406,15.5234375 17.1126302,16.1809896 16.5449219,16.7460938 C15.9772135,17.3111979 15.3183594,17.7552083 14.5683594,18.078125 C13.8183594,18.4010417 13.0136719,18.5625 12.1542969,18.5625 Z M9.23242188,16.0703125 L13.4042969,14.1875 C13.6751302,14.0677083 13.8730469,13.8697917 13.9980469,13.59375 L15.8652344,9.4296875 C16.000651,9.12760417 15.9785156,8.88671875 15.7988281,8.70703125 C15.6191406,8.52734375 15.3730469,8.50520833 15.0605469,8.640625 L10.9121094,10.5 C10.641276,10.6197917 10.4407552,10.8229167 10.3105469,11.109375 L8.44335938,15.2734375 C8.35481771,15.4713542 8.33919271,15.6471354 8.39648438,15.8007812 C8.45377604,15.9544271 8.55794271,16.0585938 8.70898438,16.1132812 C8.86002604,16.1679688 9.03450521,16.1536458 9.23242188,16.0703125 Z M12.1621094,13.3984375 C11.875651,13.3984375 11.6321615,13.296875 11.4316406,13.09375 C11.2311198,12.890625 11.1308594,12.6458333 11.1308594,12.359375 C11.1308594,12.078125 11.2311198,11.8372396 11.4316406,11.6367188 C11.6321615,11.4361979 11.875651,11.3359375 12.1621094,11.3359375 C12.4433594,11.3359375 12.6842448,11.4361979 12.8847656,11.6367188 C13.0852865,11.8372396 13.1855469,12.078125 13.1855469,12.359375 C13.1855469,12.6458333 13.0852865,12.890625 12.8847656,13.09375 C12.6842448,13.296875 12.4433594,13.3984375 12.1621094,13.3984375 Z" id="Shape" fill="#181818" fill-rule="nonzero"></path>
    </g>
</svg>