<?xml version="1.0" encoding="UTF-8"?>
<svg width="24px" height="24px" viewBox="0 0 24 24" version="1.1" xmlns="http://www.w3.org/2000/svg" xmlns:xlink="http://www.w3.org/1999/xlink">
    <title>stack</title>
    <g id="stack" stroke="none" stroke-width="1" fill="none" fill-rule="evenodd">
        <path d="M7.765625,21.9453125 L16.6757812,21.9453125 C17.5039062,21.9453125 18.1490885,21.7089844 18.6113281,21.2363281 C19.0735677,20.7636719 19.3046875,20.0859375 19.3046875,19.203125 L19.3046875,10.3867188 C19.3046875,9.50130208 19.0677083,8.82291667 18.59375,8.3515625 C18.1197917,7.88020833 17.4375,7.64453125 16.546875,7.64453125 L7.765625,7.64453125 C6.875,7.64453125 6.19270833,7.88020833 5.71875,8.3515625 C5.24479167,8.82291667 5.0078125,9.50130208 5.0078125,10.3867188 L5.0078125,19.203125 C5.0078125,20.0885417 5.24479167,20.7669271 5.71875,21.2382812 C6.19270833,21.7096354 6.875,21.9453125 7.765625,21.9453125 Z M7.984375,19.9257812 C7.66927083,19.9257812 7.43033854,19.8470052 7.26757812,19.6894531 C7.10481771,19.531901 7.0234375,19.2864583 7.0234375,18.953125 L7.0234375,10.6328125 C7.0234375,10.3020833 7.10481771,10.0572917 7.26757812,9.8984375 C7.43033854,9.73958333 7.66927083,9.66015625 7.984375,9.66015625 L16.3242188,9.66015625 C16.6367188,9.66015625 16.875651,9.73958333 17.0410156,9.8984375 C17.2063802,10.0572917 17.2890625,10.3020833 17.2890625,10.6328125 L17.2890625,18.953125 C17.2890625,19.2864583 17.2122396,19.531901 17.0585938,19.6894531 C16.9049479,19.8470052 16.703125,19.9257812 16.453125,19.9257812 L7.984375,19.9257812 Z M6.76953125,6.4453125 L17.3945312,6.4453125 C17.3424479,6.04166667 17.1998698,5.72591146 16.9667969,5.49804688 C16.733724,5.27018229 16.3841146,5.15625 15.9179688,5.15625 L8.24609375,5.15625 C7.77994792,5.15625 7.43033854,5.27018229 7.19726562,5.49804688 C6.96419271,5.72591146 6.82161458,6.04166667 6.76953125,6.4453125 Z M8.0859375,3.98828125 L16.0820312,3.98828125 C16.0481771,3.60546875 15.9147135,3.31119792 15.6816406,3.10546875 C15.4485677,2.89973958 15.1276042,2.796875 14.71875,2.796875 L9.4453125,2.796875 C9.03645833,2.796875 8.71549479,2.89973958 8.48242188,3.10546875 C8.24934896,3.31119792 8.1171875,3.60546875 8.0859375,3.98828125 Z" id="Shape" fill="#181818" fill-rule="nonzero"></path>
    </g>
</svg>